<svg width="264" height="372" viewBox="0 0 264 372" fill="none" xmlns="http://www.w3.org/2000/svg">
<path d="M144.579 371.3C110.659 371.3 86.809 360.17 59.249 336.32L17.379 366H14.199L0.418986 235.09L4.12899 234.03L33.279 288.09C57.659 333.14 92.639 365.47 142.989 365.47C186.449 365.47 208.709 336.85 208.709 302.93C208.709 190.57 12.079 235.62 12.079 97.29C12.079 40.58 64.549 0.29997 121.259 0.29997C155.179 0.29997 181.149 16.2 201.819 38.46L240.509 5.6H243.689L252.699 125.91L248.989 126.97L224.079 82.98C204.469 46.41 171.609 5.6 121.259 5.6C86.809 5.6 66.669 26.27 66.669 58.07C66.669 163.54 263.299 124.85 263.299 267.42C263.299 317.77 220.369 371.3 144.579 371.3Z" fill="white"/>
</svg>
